<?xml version="1.0" standalone="no"?>
<!DOCTYPE svg PUBLIC "-//W3C//DTD SVG 20010904//EN"
 "http://www.w3.org/TR/2001/REC-SVG-20010904/DTD/svg10.dtd">
<svg version="1.0" xmlns="http://www.w3.org/2000/svg"
 width="60" height="40" viewBox="0 0 270.000000 51.000000"
 preserveAspectRatio="xMidYMid meet">

<g transform="translate(0.000000,51.000000) scale(0.100000,-0.100000)"
fill="black" stroke="none">
<path d="M0 500 c0 -6 27 -10 60 -10 l60 0 0 -95 c0 -52 3 -95 8 -95 4 0 34
43 67 95 l60 95 79 0 78 0 -24 -32 c-65 -85 -128 -175 -128 -182 0 -6 66 -122
132 -233 l20 -33 -74 0 -75 0 -44 80 c-24 44 -47 80 -51 80 -3 0 -16 -12 -27
-26 -15 -20 -21 -41 -21 -80 l0 -53 -63 -4 c-34 -2 547 -4 1291 -5 l1352 -2 0
255 0 255 -552 -1 c-388 -1 -542 -4 -515 -11 20 -6 59 -30 86 -54 64 -58 85
-110 79 -202 -5 -89 -41 -153 -112 -197 l-49 -30 -273 -3 c-179 -2 -288 1
-315 8 -57 16 -133 89 -153 147 -49 145 23 291 164 334 14 4 -219 8 -517 8
-356 1 -543 -2 -543 -9z m2145 -19 c53 -24 81 -56 94 -108 20 -75 -13 -144
-87 -183 -13 -6 -57 -14 -98 -17 l-74 -6 0 -73 0 -74 -60 0 -60 0 0 240 0 240
123 0 c97 0 130 -4 162 -19z m455 -3 c61 -32 83 -66 88 -135 3 -48 0 -64 -20
-92 -32 -48 -86 -73 -169 -79 l-69 -5 0 -73 0 -74 -60 0 -60 0 0 240 0 240
123 0 c108 0 128 -3 167 -22z m-1867 -2 c50 -21 79 -59 84 -110 7 -63 -3 -95
-43 -133 l-35 -32 46 -90 c25 -50 45 -93 45 -96 0 -3 -30 -5 -66 -5 l-66 0
-36 80 c-35 76 -39 80 -67 78 l-30 -3 -3 -77 -3 -78 -59 0 -60 0 0 240 0 240
130 0 c88 0 141 -4 163 -14z"/>
<path d="M1984 386 c-3 -7 -4 -35 -2 -62 l3 -49 54 2 c59 1 81 17 81 60 0 38
-34 63 -85 63 -30 0 -48 -5 -51 -14z"/>
<path d="M2430 334 l0 -67 56 6 c63 6 70 11 79 47 4 18 0 34 -15 53 -18 23
-29 27 -71 27 l-49 0 0 -66z"/>
<path d="M562 333 l3 -57 52 1 c29 1 56 4 61 7 19 12 23 58 7 82 -13 21 -23
24 -71 24 l-55 0 3 -57z"/>
<path d="M1063 380 c-46 -28 -64 -61 -65 -119 0 -59 27 -110 69 -132 21 -10
83 -15 233 -17 268 -5 305 0 347 44 44 47 53 107 24 168 -36 73 -50 76 -333
76 -223 0 -246 -2 -275 -20z"/>
</g>
</svg>
