<svg width="60" height="40" viewBox="0 0 329 237" fill="none" xmlns="http://www.w3.org/2000/svg">
<path d="M311.626 87.2387C311.626 87.2387 324.982 177.639 323.498 197.372C312.405 187.957 291.9 174.051 265.622 162.082C236.824 148.965 201.094 138.175 163.227 138.175C127.979 138.175 95.7546 147.524 69.7359 159.397C42.2981 171.917 21.7624 187.244 11.8603 197.372C8.29872 168.737 16.3123 112.019 19.2803 87.2387C12.1571 63.0096 16.3123 37.679 19.2803 28.0423C27.5907 24.7382 56.3799 29.419 69.7359 32.1723C146.904 -3.07016 232.48 17.488 265.622 32.1723C286.398 28.0423 305.69 19.7823 323.498 28.0423C328.247 44.5622 315.583 75.7666 311.626 87.2387Z" fill="#BFD9E4"/>
<path d="M163.855 135.236C128.606 135.236 96.3823 144.585 70.3635 156.458C69.3742 123.227 86.6867 56.7664 163.855 56.7664C260.315 56.7664 266.25 138.997 266.25 159.143C237.451 146.026 201.722 135.236 163.855 135.236Z" fill="#F8C5AD"/>
<path fill-rule="evenodd" clip-rule="evenodd" d="M266.113 24.776C270.064 23.9548 273.969 22.995 277.907 22.0268C278.559 21.8664 279.212 21.7058 279.867 21.5456C284.875 20.3196 289.947 19.1181 294.967 18.3121C305.026 16.6971 315.322 16.5891 325.371 21.2503C326.542 21.7936 327.42 22.8184 327.776 24.0591C329.19 28.9769 329.239 34.6757 328.629 40.3685C328.014 46.114 326.691 52.1686 325.123 57.9463C322.711 66.832 319.613 75.4136 317.453 81.3988C316.981 82.7045 316.554 83.8866 316.189 84.9214C316.287 85.589 316.427 86.5514 316.603 87.7725C316.966 90.2884 317.483 93.9032 318.098 98.302C319.329 107.098 320.955 119.037 322.535 131.597C324.115 144.151 325.652 157.355 326.702 168.674C327.739 179.857 328.341 189.583 327.937 194.952C327.811 196.622 326.76 198.08 325.215 198.726C323.67 199.372 321.893 199.096 320.617 198.013C309.86 188.883 289.708 175.192 263.777 163.381C235.365 150.44 200.275 139.874 163.227 139.874C128.756 139.874 97.1652 149.021 71.5836 160.694C44.5569 173.027 24.4996 188.058 15.0432 197.731C13.8479 198.953 12.0579 199.383 10.4376 198.837C8.81728 198.291 7.65305 196.865 7.44199 195.168C5.60977 180.437 5.62602 160.005 7.65158 139.544C9.61055 119.755 13.4863 99.5475 19.6139 84.2326C16.2257 72.2696 14.3053 60.1455 13.5749 49.7264C12.8252 39.0336 13.29 29.6124 15.0251 23.9786C15.4221 22.6897 16.3819 21.6503 17.6351 21.152C20.5777 19.9821 24.696 19.6839 28.8101 19.7013C33.1066 19.7194 38.0745 20.0982 43.1075 20.6578C52.5033 21.7025 62.4215 23.4114 69.2113 24.7699C146.61 -9.91275 231.617 9.93535 266.113 24.776ZM311.626 84.4855L307.221 85.1362C307.117 84.4298 307.184 83.7087 307.417 83.0337C307.902 81.6287 308.497 79.979 309.163 78.1323C311.322 72.1504 314.226 64.1021 316.53 55.6141C318.029 50.0916 319.229 44.5306 319.776 39.4205C320.225 35.2216 320.211 31.5294 319.673 28.4991C312.482 25.722 304.842 25.7446 296.378 27.1034C291.752 27.8463 286.993 28.9679 281.984 30.1941C281.343 30.351 280.698 30.5096 280.049 30.6693C275.675 31.745 271.118 32.8656 266.49 33.7856C265.59 33.9645 264.657 33.861 263.819 33.4894C231.332 19.0959 147.17 -1.05094 71.5849 33.4687C70.725 33.8614 69.7624 33.9702 68.8366 33.7794C62.2557 32.4227 51.8593 30.5897 42.1236 29.5072C37.251 28.9654 32.6287 28.6214 28.7725 28.6052C26.3072 28.5948 24.3791 28.7233 22.9753 28.9347C22.1458 33.3593 21.8473 40.4068 22.457 49.1037C23.1773 59.3782 25.1282 71.4493 28.5916 83.2298C28.88 84.2106 28.822 85.2607 28.4274 86.2038C22.4423 100.509 18.4956 120.386 16.5122 140.421C14.9231 156.474 14.6198 172.36 15.4561 185.195C26.5463 175.655 43.7576 163.919 65.2444 153.818C65.2702 136.62 69.7877 112.381 83.4682 91.8665C98.125 69.8883 123.12 52.5002 163.227 52.5002C213.013 52.5002 240.084 73.875 254.437 98.3327C267.414 120.447 269.743 144.628 270.037 156.463C290.531 166.027 307.438 176.68 319.012 185.369C318.807 180.974 318.399 175.573 317.836 169.497C316.799 158.316 315.275 145.221 313.701 132.708C312.128 120.201 310.507 108.306 309.28 99.5358C308.667 95.1513 308.152 91.5493 307.79 89.0443C307.61 87.7919 307.467 86.8138 307.37 86.1493L307.222 85.1399C307.222 85.1393 307.221 85.1362 311.626 84.4855ZM260.951 152.401C260.221 140.425 257.284 120.778 246.757 102.839C234.027 81.1449 209.9 61.4042 163.227 61.4042C126.166 61.4042 103.92 77.2466 90.8759 96.8066C79.4071 114.004 74.9171 134.313 74.2404 149.798C99.5261 139.079 130.031 130.97 163.227 130.97C199.084 130.97 232.95 140.432 260.951 152.401ZM182.632 92.4627C184.84 91.3808 187.507 92.2937 188.589 94.5016C189.266 95.8838 191.465 98.3198 195.156 99.473C198.644 100.563 203.8 100.594 210.58 96.7242C212.715 95.5052 215.434 96.248 216.653 98.3833C217.872 100.519 217.129 103.238 214.994 104.457C206.34 109.397 198.634 109.888 192.501 107.972C186.571 106.119 182.389 102.085 180.593 98.4194C179.511 96.2114 180.424 93.5445 182.632 92.4627ZM146.015 94.94C147.844 96.5831 147.995 99.3979 146.351 101.227C140.343 107.916 133.71 110.327 127.636 110.317C121.764 110.308 116.85 108.044 113.903 106.13C111.841 104.791 111.255 102.034 112.594 99.9719C113.933 97.9097 116.69 97.3236 118.752 98.6626C120.752 99.9612 124 101.407 127.651 101.413C131.099 101.419 135.348 100.152 139.727 95.277C141.371 93.4478 144.185 93.297 146.015 94.94ZM161.374 113.369C160.177 115.248 159.522 117.662 159.332 119.25C159.039 121.691 156.823 123.433 154.382 123.141C151.941 122.848 150.199 120.632 150.491 118.191C150.795 115.649 151.773 111.868 153.865 108.584C156.006 105.225 159.701 101.878 165.299 101.878C170.06 101.878 174.226 102.574 177.383 105.796C178.845 107.288 179.85 109.086 180.656 110.956C181.458 112.815 182.168 115.003 182.91 117.41C183.634 119.76 182.315 122.251 179.966 122.975C177.616 123.699 175.124 122.381 174.4 120.031C173.658 117.62 173.07 115.85 172.48 114.482C171.895 113.126 171.416 112.429 171.024 112.028C170.471 111.463 169.442 110.782 165.299 110.782C163.774 110.782 162.523 111.566 161.374 113.369Z" fill="white"/>
<path fill-rule="evenodd" clip-rule="evenodd" d="M260.177 19.2694C264.128 18.4482 268.033 17.4883 271.971 16.5201C272.623 16.3598 273.276 16.1992 273.931 16.0389C278.939 14.8129 284.011 13.6114 289.031 12.8055C299.089 11.1905 309.385 11.0825 319.435 15.7437C320.606 16.2869 321.483 17.3117 321.84 18.5524C323.254 23.4702 323.303 29.169 322.693 34.8619C322.078 40.6073 320.755 46.662 319.187 52.4396C316.775 61.3253 313.677 69.9069 311.516 75.8922C311.129 76.9649 310.772 77.9542 310.454 78.847C310.486 78.9281 310.519 79.0121 310.553 79.0989C311.036 80.3352 311.706 82.1524 312.486 84.5475C314.047 89.3381 316.05 96.4397 317.885 105.83C321.556 124.615 324.55 152.539 322.003 189.418C321.887 191.094 320.839 192.561 319.291 193.214C317.744 193.866 315.961 193.593 314.681 192.506C303.924 183.377 283.772 169.685 257.841 157.874C229.429 144.933 194.339 134.367 157.291 134.367C122.82 134.367 91.2292 143.514 65.6476 155.187C38.6209 167.52 18.5636 182.552 9.1072 192.224C7.90643 193.452 6.10624 193.88 4.48129 193.323C2.85634 192.767 1.69651 191.325 1.50089 189.619C-3.86173 142.839 6.30616 103.946 13.7439 78.9592C10.3146 66.9206 8.37393 54.7065 7.63877 44.2198C6.88917 33.5269 7.35397 24.1057 9.0891 18.4719C9.48606 17.1831 10.4459 16.1436 11.6991 15.6454C14.6417 14.4754 18.76 14.1773 22.8741 14.1947C27.1706 14.2128 32.1385 14.5916 37.1715 15.1512C46.5673 16.1958 56.4855 17.9047 63.2753 19.2632C140.674 -15.4194 225.681 4.4287 260.177 19.2694ZM301.636 80.8196C301.165 79.7823 301.109 78.604 301.481 77.5271C301.966 76.1221 302.561 74.4723 303.227 72.6257C305.386 66.6437 308.29 58.5954 310.594 50.1074C312.093 44.5849 313.293 39.024 313.84 33.9139C314.289 29.715 314.275 26.0228 313.737 22.9925C306.546 20.2153 298.906 20.2379 290.442 21.5968C285.816 22.3396 281.057 23.4612 276.048 24.6874C275.407 24.8443 274.762 25.003 274.113 25.1626C269.739 26.2383 265.182 27.359 260.554 28.279C259.654 28.4578 258.721 28.3544 257.882 27.9828C225.396 13.5893 141.234 -6.5576 65.6489 27.9621C64.789 28.3548 63.8264 28.4636 62.9005 28.2727C56.3197 26.916 45.9233 25.083 36.1876 24.0005C31.315 23.4588 26.6927 23.1148 22.8365 23.0985C20.3712 23.0881 18.4431 23.2166 17.0392 23.428C16.2097 27.8527 15.9112 34.9001 16.5209 43.5971C17.2412 53.8716 19.1921 65.9426 22.6554 77.7231C22.8986 78.5502 22.8964 79.43 22.6491 80.2558C15.7584 103.269 6.42883 137.948 9.50844 179.698C20.6012 170.154 37.8235 158.409 59.3259 148.303C59.5522 130.857 66.0445 106.621 80.6181 86.2403C96.1675 64.4954 121.052 46.9936 157.291 46.9936C205.21 46.9936 232.22 68.4208 247.016 92.7671C260.429 114.837 263.648 138.996 264.083 150.947C284.907 160.664 302.029 171.507 313.619 180.271C315.136 148.414 312.388 124.127 309.146 107.538C307.383 98.5156 305.473 91.7647 304.02 87.3058C303.294 85.0762 302.682 83.4194 302.259 82.3381C302.048 81.7974 301.885 81.4005 301.778 81.1478C301.745 81.0713 301.718 81.0081 301.697 80.958C301.683 80.9254 301.671 80.8984 301.661 80.877L301.637 80.8227M254.919 146.853C253.935 134.945 250.307 115.327 239.407 97.3914C226.155 75.5857 201.967 55.8975 157.291 55.8975C124.37 55.8975 102.015 71.6262 87.8608 91.4194C75.5044 108.699 69.5017 128.966 68.4083 144.247C93.6736 133.551 124.14 125.463 157.291 125.463C193.107 125.463 226.936 134.904 254.919 146.853ZM180.56 88.7475C182.768 87.6656 185.434 88.5785 186.516 90.7865C187.31 92.4069 189.285 94.7218 192.442 95.7903C195.432 96.8025 200.167 96.9229 207.023 93.009C209.158 91.79 211.878 92.5328 213.097 94.6682C214.316 96.8035 213.573 99.5227 211.437 100.742C202.86 105.638 195.476 106.218 189.587 104.224C183.864 102.287 180.2 98.1315 178.521 94.7042C177.439 92.4963 178.352 89.8294 180.56 88.7475ZM142.164 89.1916C144.127 90.6726 144.518 93.4643 143.037 95.4269C137.994 102.11 131.59 104.523 125.662 104.596C119.967 104.667 114.888 102.595 111.83 100.609C109.768 99.2701 109.182 96.5129 110.521 94.4507C111.86 92.3886 114.617 91.8025 116.68 93.1415C118.569 94.3682 121.948 95.7377 125.553 95.6932C128.924 95.6516 132.662 94.394 135.929 90.0637C137.41 88.1011 140.202 87.7106 142.164 89.1916ZM156.334 110.797C155.136 112.676 154.481 115.09 154.291 116.678C153.999 119.119 151.783 120.861 149.341 120.569C146.9 120.277 145.158 118.06 145.45 115.619C145.755 113.077 146.732 109.296 148.824 106.012C150.965 102.653 154.661 99.3067 160.259 99.3067C165.02 99.3067 169.185 100.002 172.342 103.224C173.804 104.716 174.809 106.514 175.616 108.384C176.417 110.243 177.128 112.431 177.869 114.838C178.593 117.188 177.275 119.68 174.925 120.403C172.575 121.127 170.084 119.809 169.36 117.459C168.617 115.048 168.029 113.278 167.44 111.91C166.855 110.554 166.376 109.857 165.983 109.456C165.43 108.892 164.402 108.211 160.259 108.211C158.733 108.211 157.483 108.994 156.334 110.797Z" fill="black"/>
<path d="M288.189 236.549C285.3 236.549 282.787 236.015 280.65 234.946C278.513 233.838 276.851 232.315 275.664 230.376C274.516 228.397 273.943 226.102 273.943 223.49V205.088C273.943 202.477 274.516 200.201 275.664 198.262C276.851 196.283 278.513 194.76 280.65 193.691C282.787 192.583 285.3 192.029 288.189 192.029C291.117 192.029 293.63 192.583 295.728 193.691C297.865 194.76 299.507 196.283 300.654 198.262C301.842 200.201 302.435 202.477 302.435 205.088V223.49C302.435 226.102 301.842 228.397 300.654 230.376C299.507 232.315 297.865 233.838 295.728 234.946C293.63 236.015 291.117 236.549 288.189 236.549ZM288.189 228.832C289.97 228.832 291.295 228.377 292.166 227.467C293.076 226.517 293.531 225.192 293.531 223.49V205.088C293.531 203.347 293.096 202.022 292.225 201.111C291.355 200.201 290.009 199.746 288.189 199.746C286.369 199.746 285.023 200.201 284.152 201.111C283.282 202.022 282.847 203.347 282.847 205.088V223.49C282.847 225.192 283.282 226.517 284.152 227.467C285.063 228.377 286.408 228.832 288.189 228.832Z" fill="black"/>
<path d="M248.797 235.955V220.522L236.332 192.623H245.651L251.112 205.682C251.666 206.988 252.141 208.373 252.537 209.837C252.972 211.301 253.269 212.489 253.427 213.399C253.625 212.489 253.902 211.301 254.258 209.837C254.654 208.373 255.109 206.988 255.623 205.682L260.906 192.623H270.166L257.701 220.522V235.955H248.797Z" fill="black"/>
<path d="M201.986 235.955L212.611 192.623H223.89L234.634 235.955H225.552L223.474 226.161H213.146L211.068 235.955H201.986ZM214.63 219.038H221.931L219.853 208.591C219.576 207.087 219.279 205.603 218.963 204.139C218.686 202.635 218.468 201.468 218.31 200.637C218.152 201.468 217.934 202.615 217.657 204.079C217.42 205.544 217.143 207.028 216.826 208.531L214.63 219.038Z" fill="black"/>
<path d="M181.589 236.608C177.038 236.608 173.417 235.382 170.726 232.928C168.075 230.435 166.749 227.091 166.749 222.896H175.653C175.653 224.717 176.187 226.181 177.256 227.289C178.324 228.357 179.769 228.892 181.589 228.892C183.41 228.892 184.854 228.377 185.922 227.348C186.991 226.28 187.525 224.835 187.525 223.015V200.933H177.731V192.623H196.429V223.015C196.429 227.21 195.103 230.534 192.452 232.987C189.801 235.401 186.18 236.608 181.589 236.608Z" fill="black"/>
<path d="M134.481 235.955V192.623H143.385V209.422H147.6L154.723 192.623H164.399L155.495 213.339L164.755 235.955H154.96L147.6 217.613H143.385V235.955H134.481Z" fill="black"/>
<path d="M113.491 236.549C110.602 236.549 108.089 236.015 105.952 234.946C103.815 233.838 102.153 232.315 100.966 230.376C99.8182 228.397 99.2444 226.102 99.2444 223.49V205.088C99.2444 202.477 99.8182 200.201 100.966 198.262C102.153 196.283 103.815 194.76 105.952 193.691C108.089 192.583 110.602 192.029 113.491 192.029C116.419 192.029 118.932 192.583 121.029 193.691C123.166 194.76 124.809 196.283 125.956 198.262C127.143 200.201 127.737 202.477 127.737 205.088V223.49C127.737 226.102 127.143 228.397 125.956 230.376C124.809 232.315 123.166 233.838 121.029 234.946C118.932 236.015 116.419 236.549 113.491 236.549ZM113.491 228.832C115.271 228.832 116.597 228.377 117.468 227.467C118.378 226.517 118.833 225.192 118.833 223.49V205.088C118.833 203.347 118.398 202.022 117.527 201.111C116.657 200.201 115.311 199.746 113.491 199.746C111.67 199.746 110.325 200.201 109.454 201.111C108.584 202.022 108.148 203.347 108.148 205.088V223.49C108.148 225.192 108.584 226.517 109.454 227.467C110.364 228.377 111.71 228.832 113.491 228.832Z" fill="black"/>
<path d="M78.5512 236.549C75.6624 236.549 73.1495 236.015 71.0126 234.946C68.8756 233.838 67.2135 232.315 66.0264 230.376C64.8787 228.397 64.3049 226.102 64.3049 223.49V205.088C64.3049 202.477 64.8787 200.201 66.0264 198.262C67.2135 196.283 68.8756 194.76 71.0126 193.691C73.1495 192.583 75.6624 192.029 78.5512 192.029C81.4796 192.029 83.9925 192.583 86.0899 193.691C88.2268 194.76 89.8691 196.283 91.0167 198.262C92.2039 200.201 92.7975 202.477 92.7975 205.088V223.49C92.7975 226.102 92.2039 228.397 91.0167 230.376C89.8691 232.315 88.2268 233.838 86.0899 234.946C83.9925 236.015 81.4796 236.549 78.5512 236.549ZM78.5512 228.832C80.332 228.832 81.6577 228.377 82.5283 227.467C83.4385 226.517 83.8936 225.192 83.8936 223.49V205.088C83.8936 203.347 83.4583 202.022 82.5877 201.111C81.7171 200.201 80.3716 199.746 78.5512 199.746C76.7309 199.746 75.3854 200.201 74.5148 201.111C73.6442 202.022 73.2089 203.347 73.2089 205.088V223.49C73.2089 225.192 73.6442 226.517 74.5148 227.467C75.4249 228.377 76.7704 228.832 78.5512 228.832Z" fill="black"/>
<path d="M29.7217 235.955V192.623H44.5022C47.5493 192.623 50.2007 193.197 52.4564 194.344C54.7516 195.492 56.5126 197.095 57.7394 199.153C59.0057 201.21 59.6389 203.624 59.6389 206.394C59.6389 209.125 59.0057 211.539 57.7394 213.636C56.473 215.694 54.712 217.297 52.4564 218.444C50.2007 219.592 47.5493 220.166 44.5022 220.166H38.6256V235.955H29.7217ZM38.6256 212.152H44.5022C46.4017 212.152 47.9055 211.638 49.0135 210.609C50.1611 209.54 50.7349 208.136 50.7349 206.394C50.7349 204.653 50.1611 203.268 49.0135 202.239C47.9055 201.171 46.4017 200.637 44.5022 200.637H38.6256V212.152Z" fill="black"/>
</svg>
